#!OML:ASF H:\ManfredETheater\Project 1\Capture day 1\Session 1\subject.ASF
:FULLY-SPECIFIED
:DEGREES
63
root -8.83661 17.0949 39.0757 -171.54 17.5829 180.144
lowerback 5.25701 1.45352 0.962478
upperback -1.7889 2.25879 3.13805
thorax -4.89707 1.18583 2.49819
lowerneck -14.4226 3.44619 2.26093
upperneck 13.5492 5.20856 -5.30099
head 6.70603 2.23459 -1.54577
rclavicle -3.37934e-014 -7.95139e-015
rhumerus -34.6863 -7.75322 -80.0098
rradius 33.941
rwrist 6.21588
rhand -15.6834 -10.4025
rfingers 7.12502
rthumb 10.5055 -40.12
lclavicle -3.37934e-014 -7.95139e-015
lhumerus -32.4354 3.65294 89.5786
lradius 31.5799
lwrist -9.74623
lhand -6.27092 1.15334
lfingers 7.12502
lthumb 19.5719 30.1882
rfemur -12.1002 -2.9348 26.079
rtibia 29.255
rfoot -20.0836 -21.5581
rtoes -14.6496
lfemur -32.0206 -1.11209 -11.5219
ltibia 44.6731
lfoot -16.3051 -2.74106
ltoes 7.50922
64
root -8.83805 17.0909 39.0571 -171.477 17.6931 180.163
lowerback 5.27816 1.47229 1.03634
upperback -1.77934 2.29119 3.14785
thorax -4.89797 1.20024 2.46329
lowerneck -14.4164 3.47258 2.27114
upperneck 13.4903 5.25034 -5.36723
head 6.68999 2.25079 -1.56462
rclavicle -2.28602e-014 4.92986e-014
rhumerus -34.7069 -7.66283 -79.986
rradius 34.0045
rwrist 6.03856
rhand -15.7718 -10.3369
rfingers 7.12502
rthumb 10.4203 -40.0586
lclavicle -2.28602e-014 4.92986e-014
lhumerus -32.4192 3.66858 89.5929
lradius 31.6742
lwrist -9.66456
lhand -6.28403 1.19039
lfingers 7.12502
lthumb 19.5593 30.2265
rfemur -12.1057 -2.9552 26.0543
rtibia 29.2678
rfoot -20.1331 -21.4634
rtoes -14.8237
lfemur -32.0693 -1.01218 -11.5474
ltibia 44.8249
lfoot -16.4232 -2.68326
ltoes 7.56108
65
root -8.8397 17.0865 39.0378 -171.412 17.8057 180.189
lowerback 5.29878 1.48876 1.11488
upperback -1.76845 2.32118 3.16092
thorax -4.89699 1.21347 2.42944
lowerneck -14.4003 3.50208 2.28192
upperneck 13.4198 5.29564 -5.43426
head 6.66876 2.26901 -1.58363
rclavicle 3.51849e-014 1.01778e-013
rhumerus -34.7168 -7.55662 -79.9638
rradius 34.0652
rwrist 5.85268
rhand -15.8798 -10.287
rfingers 7.12502
rthumb 10.3161 -40.014
lclavicle 3.51849e-014 1.01778e-013
lhumerus -32.4114 3.67962 89.6104
lradius 31.7856
lwrist -9.5698
lhand -6.32035 1.22092
lfingers 7.12502
lthumb 19.5244 30.2606
rfemur -12.1137 -2.97438 26.0347
rtibia 29.288
rfoot -20.1829 -21.3729
rtoes -15.0074
lfemur -32.1217 -0.912928 -11.5674
ltibia 44.9857
lfoot -16.5411 -2.62264
ltoes 7.58577
66
root -8.84142 17.0819 39.0185 -171.343 17.9111 180.22
lowerback 5.33161 1.50302 1.1927
upperback -1.75979 2.34906 3.17751
thorax -4.90535 1.22581 2.39951
lowerneck -14.3909 3.53225 2.29698
upperneck 13.3479 5.34062 -5.50205
head 6.64841 2.28709 -1.60353
rclavicle 3.97569e-016 1.27222e-014
rhumerus -34.7155 -7.45291 -79.9341
rradius 34.13
rwrist 5.70711
rhand -15.9661 -10.2899
rfingers 7.12502
rthumb 10.2329 -40.021
lclavicle 3.97569e-016 1.27222e-014
lhumerus -32.4094 3.67446 89.6348
lradius 31.9118
lwrist -9.46422
lhand -6.37483 1.2403
lfingers 7.12502
lthumb 19.472 30.2853
rfemur -12.1281 -2.99246 26.0236
rtibia 29.3158
rfoot -20.2297 -21.2979
rtoes -15.2071
lfemur -32.1837 -0.816123 -11.5803
ltibia 45.1545
lfoot -16.6541 -2.56954
ltoes 7.59224
67
root -8.84304 17.0771 38.999 -171.272 18.0115 180.254
lowerback 5.38023 1.51652 1.2644
upperback -1.7564 2.37666 3.19812
thorax -4.92856 1.23836 2.37676
lowerneck -14.3839 3.56223 2.31499
upperneck 13.2765 5.38436 -5.56865
head 6.62868 2.30477 -1.62362
rclavicle -4.33351e-014 -2.22639e-014
rhumerus -34.7084 -7.35917 -79.8913
rradius 34.2027
rwrist 5.63273
rhand -16.001 -10.3832
rfingers 7.12502
rthumb 10.1992 -40.116
lclavicle -4.33351e-014 -2.22639e-014
lhumerus -32.4192 3.64858 89.6687
lradius 32.0511
lwrist -9.35029
lhand -6.44943 1.25385
lfingers 7.12502
lthumb 19.4003 30.3061
rfemur -12.1471 -2.99937 26.0194
rtibia 29.3519
rfoot -20.2795 -21.2399
rtoes -15.3932
lfemur -32.2531 -0.722006 -11.5866
ltibia 45.3301
lfoot -16.7614 -2.52367
ltoes 7.57303
68
root -8.84449 17.0723 38.9792 -171.2 18.1047 180.291
lowerback 5.43728 1.52999 1.33308
upperback -1.75126 2.40416 3.21779
thorax -4.95477 1.25085 2.35452
lowerneck -14.3962 3.59149 2.34094
upperneck 13.2084 5.42442 -5.63276
head 6.6133 2.3207 -1.64431
rclavicle -9.54166e-015 4.45278e-014
rhumerus -34.6819 -7.28603 -79.843
rradius 34.2628
rwrist 5.58082
rhand -16.0338 -10.4581
rfingers 7.12502
rthumb 10.1676 -40.1924
lclavicle -9.54166e-015 4.45278e-014
lhumerus -32.4243 3.59773 89.7082
lradius 32.1957
lwrist -9.23528
lhand -6.54812 1.25021
lfingers 7.12502
lthumb 19.3054 30.3119
rfemur -12.1699 -2.99626 26.0205
rtibia 29.3952
rfoot -20.3241 -21.2062
rtoes -15.5923
lfemur -32.3273 -0.632845 -11.5881
ltibia 45.5104
lfoot -16.8624 -2.48764
ltoes 7.53588
69
root -8.8456 17.0674 38.9595 -171.124 18.1877 180.325
lowerback 5.50402 1.54289 1.3913
upperback -1.74518 2.43028 3.23636
thorax -4.9858 1.26285 2.33687
lowerneck -14.4304 3.61916 2.37271
upperneck 13.1443 5.45978 -5.6928
head 6.60283 2.33434 -1.66479
rclavicle 4.79071e-014 1.90833e-014
rhumerus -34.6332 -7.23824 -79.7874
rradius 34.3076
rwrist 5.55683
rhand -16.0616 -10.5137
rfingers 7.12502
rthumb 10.1408 -40.2493
lclavicle 4.79071e-014 1.90833e-014
lhumerus -32.4223 3.51785 89.7539
lradius 32.3443
lwrist -9.11487
lhand -6.66238 1.23725
lfingers 7.12502
lthumb 19.1955 30.3099
rfemur -12.1993 -2.98142 26.0248
rtibia 29.4428
rfoot -20.3635 -21.1989
rtoes -15.7963
lfemur -32.411 -0.545984 -11.5874
ltibia 45.6932
lfoot -16.9539 -2.46965
ltoes 7.47975
70
root -8.84638 17.0627 38.9393 -171.049 18.2663 180.353
lowerback 5.57801 1.55371 1.43474
upperback -1.74131 2.45288 3.25575
thorax -5.02376 1.27351 2.32849
lowerneck -14.4587 3.64673 2.40656
upperneck 13.076 5.49394 -5.75091
head 6.58997 2.34782 -1.68522
rclavicle -1.25234e-014 -8.42847e-014
rhumerus -34.5749 -7.20255 -79.7247
rradius 34.3401
rwrist 5.55228
rhand -16.0902 -10.5605
rfingers 7.12502
rthumb 10.1131 -40.2974
lclavicle -1.25234e-014 -8.42847e-014
lhumerus -32.4275 3.42692 89.8032
lradius 32.4965
lwrist -8.998
lhand -6.78034 1.21762
lfingers 7.12502
lthumb 19.0821 30.3015
rfemur -12.2268 -2.95386 26.0254
rtibia 29.4923
rfoot -20.4031 -21.2082
rtoes -15.9907
lfemur -32.4947 -0.465997 -11.5888
ltibia 45.876
lfoot -17.0367 -2.46129
ltoes 7.40012
